<mxfile host="app.diagrams.net" modified="2023-11-22T13:35:49.327Z" agent="Mozilla/5.0 (X11; Linux x86_64) AppleWebKit/537.36 (KHTML, like Gecko) Chrome/117.0.0.0 Safari/537.36 Edg/117.0.2045.40" etag="3zIzpvyv8n_bgNjHkheV" version="22.1.3" type="github">
  <diagram name="第 1 页" id="-S0PZwWYOk-0b7fXgAJ_">
    <mxGraphModel dx="2139" dy="1944" grid="1" gridSize="10" guides="1" tooltips="1" connect="1" arrows="1" fold="1" page="1" pageScale="1" pageWidth="827" pageHeight="1169" math="0" shadow="0">
      <root>
        <mxCell id="0" />
        <mxCell id="1" parent="0" />
        <mxCell id="Q4YPTQ00uPktG509jL2_-60" style="edgeStyle=orthogonalEdgeStyle;rounded=0;orthogonalLoop=1;jettySize=auto;html=1;exitX=0.5;exitY=0;exitDx=0;exitDy=0;exitPerimeter=0;entryX=0.5;entryY=1;entryDx=0;entryDy=0;" edge="1" parent="1" source="Q4YPTQ00uPktG509jL2_-28" target="Q4YPTQ00uPktG509jL2_-30">
          <mxGeometry relative="1" as="geometry" />
        </mxCell>
        <mxCell id="Q4YPTQ00uPktG509jL2_-28" value="ReLU" style="strokeWidth=2;html=1;shape=mxgraph.flowchart.terminator;whiteSpace=wrap;" vertex="1" parent="1">
          <mxGeometry x="160" y="260" width="100" height="60" as="geometry" />
        </mxCell>
        <mxCell id="Q4YPTQ00uPktG509jL2_-30" value="Conv" style="whiteSpace=wrap;html=1;strokeWidth=2;" vertex="1" parent="1">
          <mxGeometry x="150" y="180" width="120" height="60" as="geometry" />
        </mxCell>
        <mxCell id="Q4YPTQ00uPktG509jL2_-65" style="edgeStyle=orthogonalEdgeStyle;rounded=0;orthogonalLoop=1;jettySize=auto;html=1;exitX=0.5;exitY=0;exitDx=0;exitDy=0;entryX=0.5;entryY=1;entryDx=0;entryDy=0;" edge="1" parent="1" source="Q4YPTQ00uPktG509jL2_-32" target="Q4YPTQ00uPktG509jL2_-58">
          <mxGeometry relative="1" as="geometry" />
        </mxCell>
        <mxCell id="Q4YPTQ00uPktG509jL2_-66" style="edgeStyle=orthogonalEdgeStyle;rounded=0;orthogonalLoop=1;jettySize=auto;html=1;entryX=0.5;entryY=1;entryDx=0;entryDy=0;" edge="1" parent="1" source="Q4YPTQ00uPktG509jL2_-32" target="Q4YPTQ00uPktG509jL2_-63">
          <mxGeometry relative="1" as="geometry" />
        </mxCell>
        <mxCell id="Q4YPTQ00uPktG509jL2_-70" style="edgeStyle=orthogonalEdgeStyle;rounded=0;orthogonalLoop=1;jettySize=auto;html=1;exitX=1;exitY=0.5;exitDx=0;exitDy=0;" edge="1" parent="1" source="Q4YPTQ00uPktG509jL2_-32">
          <mxGeometry relative="1" as="geometry">
            <mxPoint x="360" y="480" as="targetPoint" />
          </mxGeometry>
        </mxCell>
        <mxCell id="Q4YPTQ00uPktG509jL2_-32" value="input" style="whiteSpace=wrap;html=1;strokeWidth=2;" vertex="1" parent="1">
          <mxGeometry x="150" y="555" width="120" height="60" as="geometry" />
        </mxCell>
        <mxCell id="Q4YPTQ00uPktG509jL2_-36" value="BN" style="strokeWidth=2;html=1;shape=mxgraph.flowchart.terminator;whiteSpace=wrap;" vertex="1" parent="1">
          <mxGeometry x="160" y="340" width="100" height="60" as="geometry" />
        </mxCell>
        <mxCell id="Q4YPTQ00uPktG509jL2_-40" value="" style="edgeStyle=orthogonalEdgeStyle;rounded=0;orthogonalLoop=1;jettySize=auto;html=1;" edge="1" parent="1" source="Q4YPTQ00uPktG509jL2_-41" target="Q4YPTQ00uPktG509jL2_-43">
          <mxGeometry relative="1" as="geometry" />
        </mxCell>
        <mxCell id="Q4YPTQ00uPktG509jL2_-41" value="BN" style="strokeWidth=2;html=1;shape=mxgraph.flowchart.terminator;whiteSpace=wrap;" vertex="1" parent="1">
          <mxGeometry x="-10" y="340" width="100" height="60" as="geometry" />
        </mxCell>
        <mxCell id="Q4YPTQ00uPktG509jL2_-42" value="" style="edgeStyle=orthogonalEdgeStyle;rounded=0;orthogonalLoop=1;jettySize=auto;html=1;" edge="1" parent="1" source="Q4YPTQ00uPktG509jL2_-43" target="Q4YPTQ00uPktG509jL2_-44">
          <mxGeometry relative="1" as="geometry" />
        </mxCell>
        <mxCell id="Q4YPTQ00uPktG509jL2_-43" value="ReLU" style="strokeWidth=2;html=1;shape=mxgraph.flowchart.terminator;whiteSpace=wrap;" vertex="1" parent="1">
          <mxGeometry x="-10" y="260" width="100" height="60" as="geometry" />
        </mxCell>
        <mxCell id="Q4YPTQ00uPktG509jL2_-44" value="Conv" style="whiteSpace=wrap;html=1;strokeWidth=2;" vertex="1" parent="1">
          <mxGeometry x="-20" y="180" width="120" height="60" as="geometry" />
        </mxCell>
        <mxCell id="Q4YPTQ00uPktG509jL2_-58" value="First Conv" style="whiteSpace=wrap;html=1;strokeWidth=2;" vertex="1" parent="1">
          <mxGeometry x="150" y="420" width="120" height="60" as="geometry" />
        </mxCell>
        <mxCell id="Q4YPTQ00uPktG509jL2_-61" style="edgeStyle=orthogonalEdgeStyle;rounded=0;orthogonalLoop=1;jettySize=auto;html=1;exitX=0.5;exitY=0;exitDx=0;exitDy=0;exitPerimeter=0;entryX=0.5;entryY=1;entryDx=0;entryDy=0;entryPerimeter=0;" edge="1" parent="1" source="Q4YPTQ00uPktG509jL2_-36" target="Q4YPTQ00uPktG509jL2_-28">
          <mxGeometry relative="1" as="geometry" />
        </mxCell>
        <mxCell id="Q4YPTQ00uPktG509jL2_-62" style="edgeStyle=orthogonalEdgeStyle;rounded=0;orthogonalLoop=1;jettySize=auto;html=1;exitX=0.5;exitY=0;exitDx=0;exitDy=0;entryX=0.5;entryY=1;entryDx=0;entryDy=0;entryPerimeter=0;" edge="1" parent="1" source="Q4YPTQ00uPktG509jL2_-58" target="Q4YPTQ00uPktG509jL2_-36">
          <mxGeometry relative="1" as="geometry" />
        </mxCell>
        <mxCell id="Q4YPTQ00uPktG509jL2_-63" value="First Conv" style="whiteSpace=wrap;html=1;strokeWidth=2;" vertex="1" parent="1">
          <mxGeometry x="-20" y="420" width="120" height="60" as="geometry" />
        </mxCell>
        <mxCell id="Q4YPTQ00uPktG509jL2_-64" style="edgeStyle=orthogonalEdgeStyle;rounded=0;orthogonalLoop=1;jettySize=auto;html=1;exitX=0.5;exitY=0;exitDx=0;exitDy=0;entryX=0.5;entryY=1;entryDx=0;entryDy=0;entryPerimeter=0;" edge="1" parent="1" source="Q4YPTQ00uPktG509jL2_-63" target="Q4YPTQ00uPktG509jL2_-41">
          <mxGeometry relative="1" as="geometry" />
        </mxCell>
        <mxCell id="Q4YPTQ00uPktG509jL2_-67" value="&lt;font style=&quot;font-size: 14px;&quot;&gt;……&lt;/font&gt;" style="text;html=1;strokeColor=none;fillColor=none;align=center;verticalAlign=middle;whiteSpace=wrap;rounded=0;" vertex="1" parent="1">
          <mxGeometry x="330" y="340" width="60" height="30" as="geometry" />
        </mxCell>
        <mxCell id="Q4YPTQ00uPktG509jL2_-68" value="&lt;font style=&quot;font-size: 14px;&quot;&gt;……&lt;/font&gt;" style="text;html=1;strokeColor=none;fillColor=none;align=center;verticalAlign=middle;whiteSpace=wrap;rounded=0;rotation=90;" vertex="1" parent="1">
          <mxGeometry x="10" y="100" width="60" height="30" as="geometry" />
        </mxCell>
        <mxCell id="Q4YPTQ00uPktG509jL2_-69" value="&lt;font style=&quot;font-size: 14px;&quot;&gt;……&lt;/font&gt;" style="text;html=1;strokeColor=none;fillColor=none;align=center;verticalAlign=middle;whiteSpace=wrap;rounded=0;rotation=90;" vertex="1" parent="1">
          <mxGeometry x="180" y="100" width="60" height="30" as="geometry" />
        </mxCell>
        <mxCell id="Q4YPTQ00uPktG509jL2_-71" value="" style="shape=curlyBracket;whiteSpace=wrap;html=1;rounded=1;flipH=1;labelPosition=right;verticalLabelPosition=middle;align=left;verticalAlign=middle;direction=south;" vertex="1" parent="1">
          <mxGeometry x="27.5" width="365" height="70" as="geometry" />
        </mxCell>
        <mxCell id="Q4YPTQ00uPktG509jL2_-72" value="out_chans" style="text;html=1;strokeColor=none;fillColor=none;align=center;verticalAlign=middle;whiteSpace=wrap;rounded=0;" vertex="1" parent="1">
          <mxGeometry x="180" y="-20" width="60" height="30" as="geometry" />
        </mxCell>
      </root>
    </mxGraphModel>
  </diagram>
</mxfile>
